<svg xmlns="http://www.w3.org/2000/svg" viewBox="0 0 1024 1024">
  <path d="M 205 543 L 205 785 L 210 811 L 216 828 L 225 844 L 239 863 L 260 882 L 278 893 L 307 904 L 329 907 L 738 907 L 739 906 L 763 905 L 781 901 L 820 888 L 847 874 L 875 854 L 903 827 L 915 812 L 935 780 L 948 751 L 957 719 L 962 682 L 962 554 L 961 553 L 871 553 L 870 554 L 870 651 L 868 671 L 860 702 L 849 726 L 830 754 L 804 780 L 777 798 L 761 806 L 737 814 L 700 819 L 378 819 L 361 816 L 351 813 L 339 807 L 324 796 L 317 789 L 307 776 L 302 766 L 296 748 L 295 725 L 294 724 L 295 718 L 295 702 L 294 701 L 295 700 L 295 658 L 294 657 L 295 655 L 294 650 L 295 646 L 294 642 L 295 637 L 295 570 L 294 569 L 295 543 L 294 541 L 207 541 Z M 61 461 L 60 465 L 61 474 L 61 529 L 60 534 L 63 539 L 66 540 L 70 539 L 132 539 L 137 540 L 143 537 L 144 533 L 143 527 L 144 526 L 143 524 L 144 464 L 141 459 L 139 458 L 65 458 Z M 208 417 L 205 421 L 205 487 L 206 491 L 209 493 L 274 493 L 276 492 L 278 489 L 278 420 L 275 417 Z M 135 363 L 133 365 L 132 370 L 133 376 L 132 405 L 134 413 L 136 414 L 179 414 L 181 413 L 183 409 L 182 399 L 183 367 L 180 363 Z M 552 296 L 551 297 L 529 298 L 508 302 L 468 315 L 444 327 L 422 341 L 408 352 L 382 378 L 366 398 L 350 423 L 333 460 L 328 475 L 321 508 L 320 529 L 319 530 L 319 552 L 320 553 L 321 575 L 325 595 L 338 634 L 350 658 L 363 679 L 378 698 L 404 724 L 420 737 L 440 750 L 461 761 L 480 769 L 499 775 L 523 780 L 539 782 L 564 782 L 565 783 L 566 782 L 595 781 L 617 777 L 647 768 L 668 759 L 683 750 L 687 749 L 714 730 L 751 695 L 752 691 L 546 691 L 523 687 L 501 679 L 481 668 L 470 660 L 452 643 L 440 629 L 429 611 L 417 582 L 412 555 L 412 526 L 416 503 L 428 472 L 441 451 L 449 441 L 468 422 L 490 407 L 511 397 L 531 391 L 550 388 L 587 389 L 602 392 L 623 399 L 653 416 L 662 423 L 681 442 L 693 458 L 701 472 L 703 479 L 701 487 L 698 491 L 687 495 L 680 494 L 673 495 L 645 495 L 644 494 L 642 495 L 614 495 L 613 494 L 612 495 L 599 495 L 598 494 L 595 495 L 585 494 L 584 495 L 582 494 L 578 495 L 568 495 L 567 494 L 536 495 L 530 494 L 523 495 L 511 500 L 501 509 L 495 520 L 492 531 L 492 549 L 496 563 L 500 570 L 508 578 L 521 585 L 527 586 L 796 586 L 803 583 L 806 580 L 808 575 L 809 521 L 806 499 L 801 477 L 794 456 L 782 429 L 773 413 L 758 391 L 732 362 L 708 342 L 693 332 L 653 312 L 628 304 L 600 298 L 578 297 L 577 296 Z M 216 196 L 207 224 L 205 242 L 205 360 L 206 361 L 293 361 L 295 359 L 295 284 L 301 263 L 312 244 L 325 230 L 337 221 L 360 211 L 370 209 L 417 209 L 418 208 L 446 208 L 447 209 L 449 208 L 450 209 L 454 208 L 494 208 L 495 209 L 498 208 L 500 209 L 503 208 L 504 209 L 509 208 L 523 208 L 524 209 L 526 208 L 527 209 L 532 208 L 533 209 L 538 208 L 543 209 L 545 208 L 547 209 L 548 208 L 630 208 L 631 209 L 633 208 L 645 208 L 646 209 L 648 208 L 662 208 L 663 209 L 675 208 L 676 209 L 678 208 L 681 209 L 684 208 L 685 209 L 723 210 L 753 218 L 776 228 L 792 238 L 810 252 L 828 270 L 841 287 L 856 314 L 866 344 L 870 370 L 870 492 L 871 493 L 961 493 L 962 492 L 962 336 L 958 307 L 946 266 L 932 237 L 921 219 L 906 199 L 895 187 L 877 170 L 864 160 L 841 145 L 813 132 L 779 122 L 754 118 L 739 118 L 738 117 L 332 117 L 331 118 L 319 118 L 297 123 L 275 132 L 257 144 L 232 169 L 222 184 Z" fill="#40B3FF" fill-rule="evenodd"/>
</svg>
